# xmcd CD database file
#
# Track frame offsets:
#	150
#	27256
#	47196
#	61167
#	73618
#	97263
#	120480
#	135987
#	152437
#	169903
#	186492
#	198456
#	215506
#	228572
#	242399
#	256844
#	273576
#	289257
#	304101
#
# Disc length: 4296 seconds
#
# Revision: 0
# Processed by: cddbd v1.4PL0 Copyright (c) Steve Scherf et al.
# Submitted via: CDex 1.50Beta3
#
DISCID=1710c613
DTITLE=New Wolverines - Bix Beiderbecke Legacy
DYEAR=1997
DGENRE=Jazz
TTITLE0=Fidgety Feet
TTITLE1=The Jazz Me Blues
TTITLE2=I Need Some Pettin
TTITLE3='Tia Juana
TTITLE4=Davenport Blues
TTITLE5=Idolising
TTITLE6=My Pretty Girl
TTITLE7=Singin'The Blues
TTITLE8=Riverboat Shuffle
TTITLE9=For No Reason At All In C
TTITLE10=Wringin'and Twistin
TTITLE11=Ín A Mist
TTITLE12=At The Jazz Band Ball
TTITLE13=Sorry
TTITLE14=Changes
TTITLE15=From Monday On
TTITLE16=Deep Down South
TTITLE17=Georgia On My Mind
TTITLE18=Bessie Couldn't Help It
EXTD=YEAR: 1997
EXTT0=
EXTT1=
EXTT2=
EXTT3=
EXTT4=
EXTT5=
EXTT6=
EXTT7=
EXTT8=
EXTT9=
EXTT10=
EXTT11=
EXTT12=
EXTT13=
EXTT14=
EXTT15=
EXTT16=
EXTT17=
EXTT18=
PLAYORDER=
